<svg width="84" height="84" viewBox="0 0 84 84" fill="none" xmlns="http://www.w3.org/2000/svg">
<rect width="84" height="84" fill="white"/>
<path d="M38 38C44.6274 38 50 32.6274 50 26C50 19.3726 44.6274 14 38 14C31.3726 14 26 19.3726 26 26C26 32.6274 31.3726 38 38 38Z" fill="#1C3073"/>
<path d="M64.0267 46.6933C65.7829 46.0157 67.2931 44.8228 68.3591 43.2714C69.4251 41.7199 69.9971 39.8824 70 38C70 35.5247 69.0167 33.1507 67.2663 31.4004C65.516 29.65 63.142 28.6667 60.6667 28.6667C58.1913 28.6667 55.8174 29.65 54.067 31.4004C52.3167 33.1507 51.3333 35.5247 51.3333 38C51.3363 39.7613 51.8391 41.4856 52.7832 42.9726C53.7273 44.4595 55.0739 45.648 56.6667 46.4V60.6667L60.6667 64.6667L67.3333 58L63.3333 54L67.3333 50L64.0267 46.6933ZM60.6667 32.6667C61.3739 32.6667 62.0522 32.9476 62.5523 33.4477C63.0524 33.9478 63.3333 34.6261 63.3333 35.3333C63.3333 36.0406 63.0524 36.7189 62.5523 37.219C62.0522 37.7191 61.3739 38 60.6667 38C59.9594 38 59.2812 37.7191 58.7811 37.219C58.281 36.7189 58 36.0406 58 35.3333C58 34.6261 58.281 33.9478 58.7811 33.4477C59.2812 32.9476 59.9594 32.6667 60.6667 32.6667Z" fill="#1C3073"/>
<path d="M52.6667 48.64C50.8579 47.236 49.428 45.4028 48.5067 43.3066C46.4529 42.4211 44.2364 41.976 42 41.9999H34C29.7565 41.9999 25.6869 43.6856 22.6863 46.6862C19.6857 49.6868 18 53.7565 18 57.9999V63.3333H52.6667V48.64Z" fill="#1C3073"/>
</svg>
